{"glyphs":{":":{"x_min":0,"x_max":218,"ha":218,"o":"m 67 350 l 67 444 l 150 444 l 150 350 z m 67 0 l 67 94 l 150 94 l 150 0 z"},"$":{"x_min":0,"x_max":465,"ha":465,"o":"m 416 144 q 416 74 370 35 q 325 -4 253 -7 l 253 -65 l 217 -65 l 217 -7 q 162 -4 118 11 q 74 26 51 41 l 68 150 l 115 146 l 106 69 q 130 58 159 49 q 188 40 217 38 l 217 252 q 158 265 107 290 q 56 314 56 388 q 56 456 102 492 q 149 527 217 529 l 217 593 l 253 593 l 253 528 q 299 524 334 512 q 368 499 393 482 l 398 370 l 352 367 l 341 455 q 299 481 253 484 l 253 295 q 306 283 361 254 q 416 226 416 144 z m 114 394 q 114 348 144 330 q 174 313 217 303 l 217 484 q 114 478 114 394 z m 358 139 q 358 188 328 210 q 297 231 253 243 l 253 39 q 298 43 328 66 q 358 90 358 139 z"},"?":{"x_min":0,"x_max":437,"ha":437,"o":"m 98 461 l 52 464 l 57 576 q 80 608 126 634 q 172 660 227 660 q 300 660 353 625 q 406 590 406 528 q 406 478 374 442 q 343 407 302 380 q 262 352 230 324 q 199 296 199 261 q 199 217 255 217 l 255 175 q 192 173 166 198 q 141 224 141 258 q 141 302 172 333 q 203 364 244 391 q 284 418 315 448 q 346 479 346 521 q 346 557 316 583 q 286 609 226 609 q 161 609 111 564 z m 171 0 l 171 84 l 244 84 l 244 0 z"},"<":{"x_min":0,"x_max":410,"ha":410,"o":"m 350 14 l 31 272 l 31 286 l 349 549 l 349 494 l 94 280 l 350 69 z"},"'":{"x_min":0,"x_max":187,"ha":187,"o":"m 118 377 l 69 377 l 66 650 l 121 650 z"},"=":{"x_min":0,"x_max":587,"ha":587,"o":"m 65 369 l 65 413 l 522 413 l 522 369 z m 65 149 l 65 192 l 522 192 l 522 149 z"},"a":{"x_min":0,"x_max":477,"ha":477,"o":"m 85 409 q 113 432 152 442 q 192 453 232 453 q 386 453 386 304 l 386 88 q 386 37 425 37 q 445 37 458 44 l 459 4 q 437 -10 407 -10 q 331 -10 331 80 l 331 82 q 310 46 270 18 q 231 -10 178 -10 q 134 -10 88 16 q 43 43 43 114 q 43 198 110 224 q 177 251 251 251 q 272 251 292 250 q 313 248 331 247 l 331 294 q 331 345 308 374 q 284 404 223 404 q 173 404 133 384 l 115 304 l 69 310 z m 331 163 l 331 204 q 312 206 290 208 q 268 209 244 209 q 190 209 146 192 q 101 176 101 120 q 101 72 132 56 q 163 39 192 39 q 242 39 285 74 q 328 108 331 163 z"},"L":{"x_min":0,"x_max":541,"ha":541,"o":"m 507 0 l 43 0 l 43 51 l 128 51 l 128 599 l 43 599 l 43 650 l 298 650 l 298 599 l 185 599 l 185 51 l 455 51 l 475 206 l 527 202 z"},"3":{"x_min":0,"x_max":477,"ha":477,"o":"m 65 476 q 84 493 127 512 q 170 531 225 531 q 301 531 350 490 q 400 448 400 372 q 400 323 372 280 q 344 238 271 218 l 271 214 q 366 199 398 152 q 429 104 429 49 q 429 -35 378 -88 q 326 -141 229 -141 q 140 -141 94 -102 q 48 -63 33 -10 l 76 6 q 95 -35 128 -64 q 162 -92 227 -92 q 312 -92 340 -48 q 369 -3 369 50 q 369 112 326 148 q 284 183 170 187 l 170 231 q 267 237 304 278 q 341 320 341 368 q 341 420 307 450 q 273 481 213 481 q 165 481 113 454 l 95 371 l 49 377 z"},";":{"x_min":0,"x_max":230,"ha":230,"o":"m 84 350 l 84 444 l 167 444 l 167 350 z m 144 105 l 93 -107 l 39 -107 l 90 105 z"},"J":{"x_min":0,"x_max":448,"ha":448,"o":"m 408 599 l 333 599 l 333 161 q 333 -10 174 -10 q 115 -10 78 15 q 41 40 20 82 l 62 114 q 84 75 109 60 q 134 44 169 44 q 226 44 251 76 q 276 108 276 161 l 276 599 l 143 599 l 143 650 l 408 650 z"},"V":{"x_min":0,"x_max":638,"ha":638,"o":"m 641 599 l 580 599 l 344 0 l 295 0 l 58 599 l -6 599 l -6 650 l 219 650 l 219 599 l 120 599 l 320 82 l 325 82 l 521 599 l 420 599 l 420 650 l 641 650 z"},"\"":{"x_min":0,"x_max":367,"ha":367,"o":"m 118 377 l 69 377 l 66 650 l 121 650 z m 298 377 l 249 377 l 246 650 l 301 650 z"},"7":{"x_min":0,"x_max":464,"ha":464,"o":"m 446 484 l 194 -130 l 137 -130 l 386 471 l 89 471 l 89 360 l 37 360 l 37 521 l 437 521 z"},"S":{"x_min":0,"x_max":526,"ha":526,"o":"m 480 178 q 480 86 414 38 q 348 -10 254 -10 q 190 -10 137 4 q 84 18 53 39 l 65 158 l 112 153 l 108 71 q 140 54 176 48 q 212 41 252 41 q 320 41 370 72 q 419 102 419 173 q 419 252 365 276 q 311 301 249 315 q 204 325 160 340 q 115 356 86 389 q 56 422 56 485 q 56 572 114 616 q 172 660 255 660 q 307 660 361 646 q 415 633 446 611 l 452 485 l 405 480 l 394 583 q 362 599 328 604 q 294 609 264 609 q 197 609 156 578 q 116 547 116 490 q 116 424 164 402 q 213 380 270 366 q 314 356 363 340 q 412 323 446 286 q 480 250 480 178 z"},"}":{"x_min":0,"x_max":275,"ha":275,"o":"m 167 271 q 118 280 97 302 q 76 325 76 352 q 76 386 98 435 q 119 484 140 537 q 162 590 162 634 q 162 698 99 698 l 35 698 l 35 741 l 99 741 q 209 741 209 633 q 209 584 188 531 q 166 478 145 430 q 124 382 124 352 q 124 312 162 300 q 199 289 222 289 l 241 289 l 241 254 l 222 254 q 200 254 162 242 q 124 231 124 191 q 124 160 145 112 q 166 63 188 8 q 209 -46 209 -95 q 209 -203 99 -203 l 35 -203 l 35 -160 l 99 -160 q 162 -160 162 -96 q 162 -52 140 2 q 119 57 98 107 q 76 157 76 190 q 76 217 96 240 q 117 263 167 271 z"},"Z":{"x_min":0,"x_max":574,"ha":574,"o":"m 504 0 l 37 0 l 35 37 l 433 596 l 433 599 l 125 599 l 95 458 l 47 466 l 74 650 l 512 650 l 513 615 l 114 54 l 114 51 l 452 51 l 482 194 l 532 185 z"},"x":{"x_min":0,"x_max":508,"ha":508,"o":"m 491 0 l 304 0 l 304 46 l 368 46 l 254 189 l 139 46 l 198 46 l 198 0 l 20 0 l 20 46 l 80 46 l 225 222 l 82 397 l 19 397 l 19 444 l 215 444 l 215 397 l 147 397 l 257 255 l 371 397 l 312 397 l 312 444 l 485 444 l 485 397 l 431 397 l 287 223 l 432 46 l 491 46 z"},")":{"x_min":0,"x_max":271,"ha":271,"o":"m 66 -183 l 11 -183 q 177 28 177 265 q 177 381 136 498 q 94 614 11 718 l 68 718 q 151 608 189 494 q 227 379 227 265 q 227 150 188 37 q 148 -76 66 -183 z"},"&":{"x_min":0,"x_max":738,"ha":738,"o":"m 425 356 l 712 356 l 712 307 l 596 307 q 576 258 540 199 q 505 140 455 91 q 492 69 529 56 q 566 44 604 44 q 651 44 689 67 l 703 19 q 655 -10 596 -10 q 550 -10 502 7 q 455 24 411 53 q 374 24 330 7 q 287 -10 239 -10 q 166 -10 110 33 q 53 76 53 155 q 53 220 92 258 q 130 297 182 327 q 145 412 145 480 q 145 560 194 610 q 242 660 321 660 q 388 660 432 624 q 475 587 475 529 q 475 476 440 440 q 406 403 354 374 q 301 346 248 320 q 312 197 420 115 q 461 156 490 207 q 520 258 536 307 l 425 307 z m 418 526 q 418 560 393 586 q 368 613 319 613 q 266 613 234 578 q 202 544 202 485 q 202 424 233 353 q 299 386 358 426 q 418 467 418 526 z m 198 293 q 160 270 135 239 q 110 208 110 162 q 110 99 153 70 q 196 40 252 40 q 319 40 375 79 q 321 121 276 177 q 230 233 198 293 z"},"_":{"x_min":0,"x_max":543,"ha":543,"o":"m 56 -75 l 488 -75 l 488 -118 l 56 -118 z"},"v":{"x_min":0,"x_max":504,"ha":504,"o":"m 495 397 l 438 397 l 275 0 l 232 0 l 62 397 l 8 397 l 8 444 l 207 444 l 207 397 l 121 397 l 254 77 l 260 77 l 383 397 l 302 397 l 302 444 l 495 444 z"},"O":{"x_min":0,"x_max":733,"ha":733,"o":"m 690 325 q 690 233 649 157 q 608 81 534 36 q 461 -10 365 -10 q 269 -10 196 36 q 124 81 84 157 q 43 233 43 325 q 43 418 84 494 q 126 570 199 615 q 272 660 366 660 q 462 660 535 615 q 608 570 649 494 q 690 418 690 325 z m 629 324 q 629 445 557 526 q 485 608 366 608 q 245 608 174 526 q 104 443 104 326 q 104 210 174 126 q 245 42 367 42 q 488 42 558 124 q 629 206 629 324 z"},"(":{"x_min":0,"x_max":270,"ha":270,"o":"m 204 718 l 259 718 q 93 507 93 270 q 93 154 134 37 q 176 -80 259 -183 l 202 -183 q 119 -73 81 42 q 43 156 43 270 q 43 386 82 499 q 122 612 204 718 z"},"C":{"x_min":0,"x_max":647,"ha":647,"o":"m 570 45 q 494 -10 360 -10 q 218 -10 131 86 q 44 182 44 323 q 44 416 84 492 q 123 569 192 614 q 260 660 347 660 q 427 660 480 640 q 534 619 576 584 l 594 467 l 544 461 l 524 559 q 491 581 454 594 q 417 608 356 608 q 244 608 174 527 q 104 446 104 324 q 104 201 175 122 q 246 42 370 42 q 415 42 450 48 q 484 55 518 72 l 538 168 l 588 162 z"},"W":{"x_min":0,"x_max":919,"ha":919,"o":"m 916 599 l 860 599 l 688 0 l 638 0 l 463 547 l 459 547 l 288 0 l 238 0 l 54 599 l -1 599 l -1 650 l 215 650 l 215 599 l 115 599 l 262 91 l 266 91 l 425 599 l 356 599 l 356 650 l 571 650 l 571 599 l 501 599 l 662 89 l 666 89 l 803 599 l 702 599 l 702 650 l 916 650 z"},"A":{"x_min":0,"x_max":638,"ha":638,"o":"m 646 0 l 423 0 l 423 51 l 519 51 l 466 192 l 173 192 l 117 51 l 220 51 l 220 0 l -2 0 l -2 51 l 59 51 l 279 599 l 172 599 l 172 650 l 347 650 l 580 51 l 646 51 z m 449 238 l 325 566 l 320 566 l 191 238 z"},"f":{"x_min":0,"x_max":313,"ha":313,"o":"m 257 698 q 288 698 310 692 q 331 687 352 669 l 368 570 l 322 564 l 304 642 q 284 650 249 650 q 162 650 162 532 l 162 444 l 279 444 l 279 397 l 162 397 l 162 46 l 270 46 l 270 0 l 25 0 l 25 46 l 107 46 l 107 397 l 41 397 l 41 444 l 107 444 l 107 530 q 107 610 153 654 q 199 698 257 698 z"},"Q":{"x_min":0,"x_max":741,"ha":741,"o":"m 690 325 q 690 254 665 193 q 640 132 597 86 l 675 7 l 639 -29 l 558 52 q 475 -10 365 -10 q 269 -10 196 36 q 124 81 84 157 q 43 233 43 325 q 43 418 84 494 q 126 570 199 615 q 272 660 366 660 q 462 660 535 615 q 608 570 649 494 q 690 418 690 325 z m 629 324 q 629 445 557 526 q 485 608 366 608 q 245 608 174 526 q 104 443 104 326 q 104 210 174 126 q 245 42 367 42 q 456 42 521 90 l 394 218 l 431 254 l 559 124 q 629 203 629 324 z"},"w":{"x_min":0,"x_max":767,"ha":767,"o":"m 757 397 l 703 397 l 570 0 l 527 0 l 386 358 l 382 358 l 241 0 l 200 0 l 61 397 l 10 397 l 10 444 l 212 444 l 212 397 l 121 397 l 224 88 l 228 88 l 367 444 l 406 444 l 549 87 l 554 87 l 648 397 l 561 397 l 561 444 l 757 444 z"},"-":{"x_min":0,"x_max":355,"ha":355,"o":"m 63 254 l 292 254 l 292 205 l 63 205 z"},"E":{"x_min":0,"x_max":587,"ha":587,"o":"m 522 0 l 43 0 l 43 51 l 128 51 l 128 599 l 43 599 l 43 650 l 512 650 l 532 468 l 481 462 l 461 599 l 185 599 l 185 356 l 500 356 l 500 305 l 185 305 l 185 51 l 471 51 l 491 188 l 541 183 z"},"s":{"x_min":0,"x_max":432,"ha":432,"o":"m 389 126 q 389 64 336 27 q 284 -10 207 -10 q 160 -10 114 4 q 69 17 45 34 l 57 128 l 102 124 l 98 64 q 145 39 205 39 q 254 39 294 58 q 333 78 333 120 q 333 160 304 177 q 276 194 234 202 q 192 209 150 218 q 109 227 80 251 q 52 275 52 326 q 52 394 101 424 q 150 453 208 453 q 254 453 294 440 q 335 427 360 412 l 370 310 l 324 304 l 312 379 q 291 390 268 397 q 245 404 215 404 q 168 404 139 387 q 110 370 110 332 q 110 294 138 278 q 166 263 208 256 q 250 249 292 239 q 333 229 361 204 q 389 179 389 126 z"},">":{"x_min":0,"x_max":410,"ha":410,"o":"m 378 272 l 59 14 l 59 69 l 316 280 l 60 494 l 60 549 l 378 286 z"},"l":{"x_min":0,"x_max":261,"ha":261,"o":"m 240 0 l 21 0 l 21 46 l 103 46 l 103 642 l 20 642 l 20 688 l 158 688 l 158 46 l 240 46 z"},"8":{"x_min":0,"x_max":538,"ha":538,"o":"m 491 161 q 491 82 426 36 q 361 -10 263 -10 q 170 -10 110 33 q 49 76 49 160 q 49 235 97 274 q 145 312 206 337 q 150 363 108 400 q 67 436 67 497 q 67 568 124 614 q 180 660 268 660 q 353 660 412 616 q 470 572 470 498 q 470 433 426 398 q 382 364 326 341 q 389 312 440 273 q 491 234 491 161 z m 412 498 q 412 554 370 582 q 328 610 268 610 q 208 610 167 582 q 126 554 126 504 q 126 451 170 420 q 214 390 272 364 q 336 391 374 418 q 412 446 412 498 z m 431 158 q 431 220 377 253 q 323 286 257 314 q 194 288 150 257 q 106 226 106 165 q 106 104 152 72 q 197 40 265 40 q 332 40 382 70 q 431 100 431 158 z"},"\\":{"x_min":0,"x_max":378,"ha":378,"o":"m 101 688 l 155 688 l 375 0 l 321 0 z"},"e":{"x_min":0,"x_max":467,"ha":467,"o":"m 427 124 q 417 68 371 29 q 325 -10 247 -10 q 154 -10 98 50 q 42 110 42 216 q 42 320 96 386 q 150 453 241 453 q 332 453 378 394 q 423 334 423 258 q 423 236 418 208 l 100 208 q 102 128 141 84 q 180 39 251 39 q 356 39 381 135 z m 365 254 q 370 307 339 356 q 308 404 238 404 q 171 404 140 359 q 108 314 101 254 z"},"b":{"x_min":0,"x_max":529,"ha":529,"o":"m 487 233 q 487 176 468 120 q 449 64 406 27 q 362 -10 291 -10 q 239 -10 196 12 q 154 34 132 76 l 123 0 l 68 0 q 72 28 76 62 q 81 95 81 127 l 81 642 l 0 642 l 0 688 l 136 688 l 136 350 q 157 391 194 422 q 232 453 297 453 q 380 453 434 396 q 487 339 487 233 z m 429 228 q 429 316 387 360 q 345 404 286 404 q 219 404 178 355 q 138 306 136 256 l 136 174 q 136 118 179 78 q 222 39 281 39 q 362 39 396 99 q 429 159 429 228 z"},"%":{"x_min":0,"x_max":674,"ha":674,"o":"m 173 245 q 117 245 78 278 q 39 310 39 383 q 39 458 80 494 q 120 531 182 531 q 240 531 278 498 q 317 466 317 393 q 317 323 279 284 q 241 245 173 245 z m 567 521 l 367 269 l 163 0 l 103 0 l 332 287 l 507 521 z m 174 287 q 224 287 246 316 q 268 344 268 392 q 268 489 180 489 q 87 489 87 384 q 87 287 174 287 z m 494 -10 q 437 -10 398 22 q 359 54 359 128 q 359 203 400 240 q 441 276 503 276 q 560 276 598 244 q 637 212 637 138 q 637 68 600 29 q 562 -10 494 -10 z m 494 32 q 589 32 589 137 q 589 234 501 234 q 408 234 408 129 q 408 32 494 32 z"},"m":{"x_min":0,"x_max":859,"ha":859,"o":"m 851 0 l 632 0 l 632 46 l 714 46 l 714 267 q 714 343 684 374 q 653 404 607 404 q 541 404 506 354 q 470 304 468 263 l 468 46 l 550 46 l 550 0 l 331 0 l 331 46 l 413 46 l 413 267 q 413 344 382 374 q 352 404 307 404 q 241 404 206 355 q 170 306 168 265 l 168 46 l 248 46 l 248 0 l 30 0 l 30 46 l 113 46 l 113 397 l 29 397 l 29 444 l 168 444 l 168 357 q 190 398 227 426 q 264 453 320 453 q 372 453 410 426 q 448 400 461 343 q 482 390 522 422 q 562 453 621 453 q 686 453 728 412 q 769 371 769 280 l 769 46 l 851 46 z"},"#":{"x_min":0,"x_max":595,"ha":595,"o":"m 489 521 l 465 398 l 552 398 l 552 352 l 456 352 l 423 177 l 522 177 l 522 131 l 414 131 l 389 0 l 338 0 l 363 131 l 175 131 l 150 0 l 99 0 l 124 131 l 40 131 l 40 177 l 133 177 l 166 352 l 70 352 l 70 398 l 175 398 l 199 521 l 250 521 l 226 398 l 414 398 l 438 521 z m 184 177 l 372 177 l 405 352 l 217 352 z"},",":{"x_min":0,"x_max":195,"ha":195,"o":"m 29 -107 l 80 105 l 134 105 l 83 -107 z"},"n":{"x_min":0,"x_max":568,"ha":568,"o":"m 560 0 l 341 0 l 341 46 l 423 46 l 423 267 q 423 343 392 374 q 360 404 313 404 q 248 404 209 362 q 170 319 168 267 l 168 46 l 250 46 l 250 0 l 30 0 l 30 46 l 113 46 l 113 397 l 29 397 l 29 444 l 168 444 l 168 362 q 217 453 326 453 q 392 453 435 412 q 478 371 478 280 l 478 46 l 560 46 z"},"h":{"x_min":0,"x_max":555,"ha":555,"o":"m 547 0 l 327 0 l 327 46 l 410 46 l 410 267 q 410 343 378 374 q 346 404 297 404 q 236 404 196 361 q 156 318 154 268 l 154 46 l 236 46 l 236 0 l 17 0 l 17 46 l 99 46 l 99 642 l 17 642 l 17 688 l 154 688 l 154 360 q 177 403 218 428 q 258 453 313 453 q 379 453 422 412 q 465 371 465 280 l 465 46 l 547 46 z"},"z":{"x_min":0,"x_max":461,"ha":461,"o":"m 409 0 l 40 0 l 39 36 l 330 397 l 99 397 l 88 303 l 42 309 l 53 444 l 401 444 l 402 408 l 112 46 l 363 46 l 387 141 l 431 133 z"},"B":{"x_min":0,"x_max":599,"ha":599,"o":"m 555 182 q 555 105 500 52 q 444 0 337 0 l 43 0 l 43 51 l 128 51 l 128 599 l 43 599 l 43 650 l 332 650 q 433 650 480 607 q 527 564 527 493 q 527 440 496 401 q 465 362 417 352 l 417 348 q 488 337 522 290 q 555 244 555 182 z m 466 481 q 466 547 430 573 q 394 599 326 599 l 185 599 l 185 361 l 324 361 q 382 361 424 391 q 466 421 466 481 z m 494 185 q 494 243 460 278 q 426 313 357 313 l 185 313 l 185 51 l 330 51 q 403 51 448 82 q 494 114 494 185 z"},"K":{"x_min":0,"x_max":633,"ha":633,"o":"m 627 0 l 406 0 l 406 51 l 487 51 l 301 306 l 186 306 l 186 51 l 266 51 l 266 0 l 43 0 l 43 51 l 128 51 l 128 599 l 43 599 l 43 650 l 267 650 l 267 599 l 186 599 l 186 356 l 299 356 l 479 600 l 397 600 l 397 651 l 615 651 l 615 600 l 540 600 l 345 337 l 553 51 l 627 51 z"},"R":{"x_min":0,"x_max":611,"ha":611,"o":"m 602 0 l 482 0 l 339 279 l 186 279 l 186 51 l 278 51 l 278 0 l 43 0 l 43 51 l 128 51 l 128 599 l 43 599 l 43 650 l 320 650 q 441 650 490 596 q 539 543 539 469 q 539 407 504 356 q 468 306 395 289 l 519 51 l 602 51 z m 479 467 q 479 534 440 566 q 401 599 315 599 l 186 599 l 186 327 l 318 327 q 404 327 442 364 q 479 402 479 467 z"},"T":{"x_min":0,"x_max":612,"ha":612,"o":"m 591 458 l 539 454 l 519 599 l 334 599 l 334 51 l 451 51 l 451 0 l 162 0 l 162 51 l 277 51 l 277 599 l 92 599 l 72 454 l 21 458 l 40 650 l 571 650 z"},"P":{"x_min":0,"x_max":567,"ha":567,"o":"m 533 455 q 533 355 474 302 q 415 249 319 249 l 185 249 l 185 51 l 300 51 l 300 0 l 43 0 l 43 51 l 128 51 l 128 599 l 43 599 l 43 650 l 313 650 q 434 650 484 590 q 533 531 533 455 z m 473 453 q 473 520 433 560 q 393 599 310 599 l 185 599 l 185 299 l 314 299 q 388 299 430 339 q 473 379 473 453 z"},"|":{"x_min":0,"x_max":230,"ha":230,"o":"m 140 730 l 140 -80 l 90 -80 l 90 730 z"},"t":{"x_min":0,"x_max":364,"ha":364,"o":"m 356 115 q 336 -10 221 -10 q 156 -10 124 28 q 91 66 91 130 l 91 397 l 18 397 l 18 444 l 91 444 l 91 588 l 146 588 l 146 444 l 323 444 l 323 397 l 146 397 l 146 136 q 146 92 164 66 q 182 39 227 39 q 256 39 279 56 q 302 74 313 129 z"},"M":{"x_min":0,"x_max":877,"ha":877,"o":"m 835 599 l 748 599 l 748 51 l 833 51 l 833 0 l 610 0 l 610 51 l 691 51 l 691 509 l 687 509 l 456 28 l 421 28 l 188 510 l 184 510 l 184 51 l 266 51 l 266 0 l 44 0 l 44 51 l 129 51 l 129 599 l 42 599 l 42 650 l 180 650 l 439 113 l 443 113 l 697 650 l 835 650 z"},"g":{"x_min":0,"x_max":543,"ha":543,"o":"m 524 397 l 449 397 l 449 2 q 449 -102 392 -162 q 336 -223 238 -223 q 168 -223 115 -190 q 62 -157 47 -93 l 91 -73 q 107 -128 152 -151 q 196 -174 242 -174 q 309 -174 352 -128 q 394 -82 394 5 l 394 93 q 373 53 334 23 q 296 -7 232 -7 q 152 -7 98 49 q 43 105 43 209 q 43 266 63 322 q 83 379 126 416 q 170 453 241 453 q 290 453 331 433 q 372 413 394 373 l 394 444 l 524 444 z m 394 182 l 394 277 q 394 333 352 368 q 311 404 254 404 q 170 404 135 344 q 100 284 100 214 q 100 128 141 84 q 182 41 241 41 q 307 41 350 86 q 392 132 394 182 z"},"j":{"x_min":0,"x_max":248,"ha":248,"o":"m 106 568 l 106 647 l 168 647 l 168 568 z m 168 -21 q 168 -148 112 -188 q 56 -229 -14 -224 l -16 -179 q 12 -179 42 -170 q 71 -160 92 -126 q 113 -93 113 -21 l 113 397 l 6 397 l 6 444 l 168 444 z"},"i":{"x_min":0,"x_max":275,"ha":275,"o":"m 110 568 l 110 647 l 172 647 l 172 568 z m 254 0 l 34 0 l 34 46 l 117 46 l 117 397 l 33 397 l 33 444 l 172 444 l 172 46 l 254 46 z"},"y":{"x_min":0,"x_max":506,"ha":506,"o":"m 497 397 l 441 397 l 281 0 l 216 -167 l 297 -167 l 297 -213 l 77 -213 l 77 -167 l 163 -167 l 227 3 l 64 397 l 9 397 l 9 444 l 209 444 l 209 397 l 122 397 l 256 74 l 262 74 l 384 397 l 303 397 l 303 444 l 497 444 z"},"@":{"x_min":0,"x_max":909,"ha":909,"o":"m 299 401 q 328 422 365 438 q 402 453 464 453 q 608 453 608 304 l 608 112 q 608 76 630 54 q 652 31 690 31 q 738 31 764 66 q 791 102 802 154 q 813 207 813 258 q 813 395 758 472 q 704 548 624 579 q 543 610 466 610 q 356 610 271 560 q 186 510 138 422 q 90 335 90 223 q 90 104 142 18 q 195 -67 280 -112 q 366 -158 466 -158 q 596 -158 688 -94 l 708 -130 q 658 -163 594 -182 q 530 -202 460 -202 q 343 -202 248 -148 q 154 -93 98 2 q 43 98 43 220 q 43 339 97 438 q 151 536 246 595 q 341 654 464 654 q 550 654 642 618 q 734 583 798 500 q 861 416 861 271 q 861 208 844 143 q 828 78 788 34 q 748 -10 679 -10 q 626 -10 596 17 q 565 44 556 88 q 536 50 496 20 q 456 -10 401 -10 q 357 -10 311 16 q 265 43 265 114 q 265 170 296 198 q 328 227 376 237 q 424 247 473 247 q 493 247 514 246 q 535 245 553 244 l 553 294 q 553 343 530 376 q 508 409 451 409 q 390 409 342 376 l 324 297 l 283 302 z m 553 208 q 534 210 512 211 q 491 212 469 212 q 414 212 368 195 q 323 178 323 120 q 323 72 354 54 q 384 35 416 35 q 466 35 510 73 q 553 111 553 169 z"},".":{"x_min":0,"x_max":207,"ha":207,"o":"m 62 0 l 62 94 l 145 94 l 145 0 z"},"p":{"x_min":0,"x_max":544,"ha":544,"o":"m 502 235 q 502 177 482 120 q 462 64 418 27 q 374 -10 300 -10 q 254 -10 214 10 q 174 29 151 67 l 151 -167 l 260 -167 l 260 -213 l 13 -213 l 13 -167 l 96 -167 l 96 397 l 12 397 l 12 444 l 151 444 l 151 349 q 172 390 210 422 q 248 453 310 453 q 396 453 449 396 q 502 338 502 235 z m 444 230 q 444 315 403 360 q 362 404 300 404 q 238 404 196 353 q 153 302 151 253 l 151 174 q 151 118 192 78 q 233 39 291 39 q 374 39 409 98 q 444 158 444 230 z"},"X":{"x_min":0,"x_max":623,"ha":623,"o":"m 616 0 l 399 0 l 399 51 l 489 51 l 308 297 l 134 51 l 217 51 l 217 0 l 6 0 l 6 51 l 72 51 l 279 337 l 82 599 l 16 599 l 16 650 l 227 650 l 227 599 l 147 599 l 311 377 l 468 599 l 397 599 l 397 650 l 608 650 l 608 599 l 532 599 l 340 338 l 553 51 l 616 51 z"},"*":{"x_min":0,"x_max":415,"ha":415,"o":"m 364 562 l 243 492 l 364 423 l 340 386 l 226 459 l 230 339 l 185 339 l 189 458 l 75 386 l 51 423 l 172 492 l 51 562 l 76 599 l 189 525 l 185 650 l 230 650 l 225 524 l 340 599 z"},"Y":{"x_min":0,"x_max":604,"ha":604,"o":"m 603 599 l 537 599 l 331 247 l 331 51 l 448 51 l 448 0 l 160 0 l 160 51 l 275 51 l 275 247 l 60 599 l -6 599 l -6 650 l 222 650 l 222 599 l 124 599 l 303 301 l 308 301 l 480 599 l 383 599 l 383 650 l 603 650 z"},"c":{"x_min":0,"x_max":459,"ha":459,"o":"m 421 145 q 411 87 368 38 q 326 -10 239 -10 q 148 -10 95 50 q 42 110 42 215 q 42 272 63 327 q 84 382 128 418 q 173 453 243 453 q 334 453 392 405 l 408 306 l 362 300 l 345 375 q 304 404 243 404 q 164 404 132 348 q 101 291 101 219 q 101 134 138 86 q 175 39 245 39 q 351 39 374 156 z"},"!":{"x_min":0,"x_max":234,"ha":234,"o":"m 149 650 l 138 181 l 95 181 l 85 650 z m 83 0 l 83 84 l 156 84 l 156 0 z"},"/":{"x_min":0,"x_max":329,"ha":329,"o":"m 304 688 l 84 0 l 30 0 l 250 688 z"},"[":{"x_min":0,"x_max":277,"ha":277,"o":"m 89 -204 l 89 741 l 253 741 l 253 698 l 139 698 l 139 -161 l 253 -161 l 253 -204 z"},"6":{"x_min":0,"x_max":530,"ha":530,"o":"m 478 202 q 478 116 432 53 q 385 -10 273 -10 q 142 -10 97 80 q 52 170 52 306 q 52 459 104 560 q 156 660 284 660 q 348 660 390 638 q 431 615 468 573 l 434 537 q 375 610 284 610 q 182 610 147 528 q 112 446 111 300 l 111 280 q 125 323 168 360 q 211 398 294 398 q 393 398 436 341 q 478 284 478 202 z m 420 199 q 420 271 388 310 q 356 348 283 348 q 193 348 156 295 q 120 242 116 195 q 126 129 160 86 q 195 42 275 42 q 353 42 386 84 q 420 126 420 199 z"},"r":{"x_min":0,"x_max":414,"ha":414,"o":"m 276 452 q 323 452 349 429 l 365 330 l 319 324 l 302 400 q 287 404 268 404 q 224 404 196 367 q 168 330 168 273 l 168 46 l 277 46 l 277 0 l 30 0 l 30 46 l 113 46 l 113 397 l 29 397 l 29 444 l 165 444 l 165 365 q 178 402 209 427 q 240 452 276 452 z"},"2":{"x_min":0,"x_max":509,"ha":509,"o":"m 77 486 q 146 531 252 531 q 345 531 384 480 q 424 429 424 375 q 424 305 372 243 q 320 181 250 132 q 181 83 130 51 l 403 51 l 413 136 l 461 133 l 451 0 l 58 0 l 52 44 q 200 146 282 220 q 364 293 364 371 q 364 421 332 451 q 299 481 236 481 q 214 481 183 474 q 152 468 124 456 l 107 381 l 61 387 z"},"{":{"x_min":0,"x_max":275,"ha":275,"o":"m 108 267 q 158 258 178 236 q 199 213 199 186 q 199 152 178 103 q 156 54 134 1 q 113 -52 113 -96 q 113 -160 176 -160 l 240 -160 l 240 -203 l 176 -203 q 66 -203 66 -95 q 66 -46 87 7 q 108 60 130 108 q 151 156 151 186 q 151 226 114 238 q 76 249 53 249 l 34 249 l 34 284 l 53 284 q 76 284 114 296 q 151 307 151 347 q 151 378 130 426 q 108 475 87 530 q 66 584 66 633 q 66 741 176 741 l 240 741 l 240 698 l 176 698 q 113 698 113 634 q 113 590 134 536 q 156 481 178 431 q 199 381 199 348 q 199 321 178 298 q 158 275 108 267 z"},"9":{"x_min":0,"x_max":530,"ha":530,"o":"m 52 319 q 52 404 98 468 q 145 531 257 531 q 388 531 433 441 q 478 351 478 215 q 478 62 426 -38 q 374 -139 246 -139 q 182 -139 140 -116 q 99 -94 62 -52 l 96 -16 q 155 -89 246 -89 q 348 -89 383 -6 q 418 76 419 221 l 419 241 q 405 198 362 160 q 319 123 236 123 q 137 123 94 180 q 52 236 52 319 z m 110 322 q 110 250 142 212 q 174 173 247 173 q 337 173 374 226 q 410 279 414 326 q 404 392 370 436 q 335 479 255 479 q 177 479 144 437 q 110 395 110 322 z"}," ":{"x_min":0,"x_max":238,"ha":238,"o":""},"I":{"x_min":0,"x_max":314,"ha":314,"o":"m 270 0 l 43 0 l 43 51 l 128 51 l 128 599 l 43 599 l 43 650 l 270 650 l 270 599 l 186 599 l 186 51 l 270 51 z"},"H":{"x_min":0,"x_max":754,"ha":754,"o":"m 710 0 l 483 0 l 483 51 l 568 51 l 568 307 l 185 307 l 185 51 l 270 51 l 270 0 l 43 0 l 43 51 l 128 51 l 128 599 l 43 599 l 43 650 l 270 650 l 270 599 l 185 599 l 185 356 l 568 356 l 568 599 l 483 599 l 483 650 l 710 650 l 710 599 l 626 599 l 626 51 l 710 51 z"},"4":{"x_min":0,"x_max":531,"ha":531,"o":"m 397 -131 l 341 -131 l 341 35 l 27 35 l 20 84 l 263 521 l 397 521 l 397 84 l 504 84 l 496 35 l 397 35 z m 341 84 l 341 471 l 289 471 l 76 84 z"},"~":{"x_min":0,"x_max":622,"ha":622,"o":"m 427 206 q 380 206 344 224 q 307 242 272 260 q 236 279 192 279 q 166 279 140 266 q 115 254 89 214 l 55 236 q 84 287 120 308 q 157 330 196 330 q 241 330 277 312 q 313 294 348 276 q 384 257 428 257 q 460 257 484 274 q 508 290 535 336 l 572 312 q 539 254 504 230 q 469 206 427 206 z"},"D":{"x_min":0,"x_max":707,"ha":707,"o":"m 663 325 q 663 183 576 92 q 488 0 334 0 l 43 0 l 43 50 l 128 50 l 128 600 l 43 600 l 43 650 l 332 650 q 489 650 576 558 q 663 465 663 325 z m 602 325 q 602 446 532 523 q 463 600 331 600 l 185 600 l 185 50 l 331 50 q 463 50 532 126 q 602 202 602 325 z"},"^":{"x_min":0,"x_max":448,"ha":448,"o":"m 205 657 l 241 657 l 405 374 l 353 374 l 222 603 l 96 374 l 44 374 z"},"0":{"x_min":0,"x_max":576,"ha":576,"o":"m 525 260 q 525 140 464 65 q 403 -10 286 -10 q 168 -10 110 66 q 51 141 51 257 q 51 373 112 452 q 172 531 290 531 q 411 531 468 452 q 525 373 525 260 z m 465 262 q 465 357 424 418 q 382 480 290 480 q 200 480 156 421 q 111 362 111 261 q 111 160 156 100 q 200 41 288 41 q 375 41 420 100 q 465 159 465 262 z"},"F":{"x_min":0,"x_max":556,"ha":556,"o":"m 532 466 l 479 460 l 459 599 l 185 599 l 185 328 l 491 328 l 491 277 l 185 277 l 185 51 l 302 51 l 302 0 l 43 0 l 43 51 l 128 51 l 128 599 l 43 599 l 43 650 l 511 650 z"},"`":{"x_min":0,"x_max":440,"ha":440,"o":"m 346 550 l 328 523 l 161 631 l 194 678 z"},"k":{"x_min":0,"x_max":511,"ha":511,"o":"m 501 0 l 296 0 l 296 46 l 370 46 l 237 214 l 154 214 l 154 46 l 225 46 l 225 0 l 17 0 l 17 46 l 99 46 l 99 642 l 16 642 l 16 688 l 154 688 l 154 258 l 236 258 l 347 397 l 274 397 l 274 444 l 477 444 l 477 397 l 405 397 l 279 241 l 432 46 l 501 46 z"},"u":{"x_min":0,"x_max":555,"ha":555,"o":"m 539 0 l 401 0 l 401 88 q 380 44 339 17 q 298 -10 244 -10 q 178 -10 134 31 q 90 72 90 163 l 90 397 l 8 397 l 8 444 l 145 444 l 145 176 q 145 100 178 70 q 210 39 260 39 q 320 39 360 86 q 399 133 401 181 l 401 397 l 303 397 l 303 444 l 456 444 l 456 46 l 539 46 z"},"]":{"x_min":0,"x_max":278,"ha":278,"o":"m 187 -204 l 23 -204 l 23 -161 l 137 -161 l 137 698 l 23 698 l 23 741 l 187 741 z"},"U":{"x_min":0,"x_max":718,"ha":718,"o":"m 677 599 l 613 599 l 613 266 q 613 197 590 134 q 568 70 512 30 q 456 -10 357 -10 q 213 -10 160 70 q 108 150 108 255 l 108 599 l 38 599 l 38 650 l 259 650 l 259 599 l 165 599 l 165 257 q 165 42 360 42 q 454 42 506 98 q 558 154 558 266 l 558 599 l 461 599 l 461 650 l 677 650 z"},"o":{"x_min":0,"x_max":510,"ha":510,"o":"m 469 222 q 469 122 411 56 q 353 -10 252 -10 q 152 -10 96 56 q 41 121 41 219 q 41 316 96 384 q 151 453 256 453 q 361 453 415 384 q 469 316 469 222 z m 410 223 q 410 301 370 352 q 330 404 254 404 q 178 404 138 352 q 99 299 99 222 q 99 146 138 92 q 178 39 254 39 q 330 39 370 92 q 410 145 410 223 z"},"N":{"x_min":0,"x_max":732,"ha":732,"o":"m 695 599 l 611 599 l 611 0 l 572 0 l 187 538 l 183 538 l 183 51 l 290 51 l 290 0 l 51 0 l 51 51 l 128 51 l 128 599 l 41 599 l 41 650 l 171 650 l 552 118 l 556 118 l 556 599 l 457 599 l 457 650 l 695 650 z"},"+":{"x_min":0,"x_max":426,"ha":426,"o":"m 40 259 l 40 303 l 194 303 l 194 455 l 238 455 l 238 303 l 387 303 l 387 259 l 238 259 l 238 108 l 194 108 l 194 259 z"},"G":{"x_min":0,"x_max":694,"ha":694,"o":"m 665 277 l 610 277 l 610 0 l 566 0 l 558 96 q 530 51 474 20 q 419 -10 345 -10 q 212 -10 128 87 q 44 184 44 323 q 44 416 85 492 q 126 569 196 614 q 267 660 356 660 q 434 660 491 639 q 548 618 586 584 l 604 467 l 554 461 l 534 558 q 506 576 468 592 q 430 608 363 608 q 246 608 175 527 q 104 446 104 326 q 104 202 172 122 q 241 42 354 42 q 449 42 501 94 q 553 146 553 204 l 553 277 l 390 277 l 390 328 l 665 328 z"},"q":{"x_min":0,"x_max":530,"ha":530,"o":"m 520 -213 l 284 -213 l 284 -167 l 394 -167 l 394 93 q 373 52 335 21 q 297 -10 233 -10 q 151 -10 96 46 q 42 103 42 209 q 42 266 62 322 q 81 378 124 416 q 167 453 238 453 q 290 453 334 430 q 377 408 399 365 q 400 384 402 404 q 404 424 408 444 l 463 444 q 457 410 453 377 q 449 344 449 311 l 449 -167 l 520 -167 z m 394 189 l 394 271 q 394 327 350 366 q 307 404 248 404 q 167 404 134 344 q 101 284 101 215 q 101 126 142 82 q 184 39 243 39 q 309 39 350 89 q 392 139 394 189 z"},"d":{"x_min":0,"x_max":544,"ha":544,"o":"m 530 0 l 393 0 l 393 92 q 371 52 332 21 q 294 -10 233 -10 q 148 -10 95 48 q 42 106 42 209 q 42 267 62 323 q 81 379 125 416 q 169 453 243 453 q 290 453 330 432 q 370 411 393 371 l 393 642 l 281 642 l 281 688 l 448 688 l 448 46 l 530 46 z m 393 189 l 393 276 q 391 331 350 368 q 308 404 252 404 q 170 404 135 344 q 100 284 100 213 q 100 128 141 84 q 182 39 244 39 q 306 39 348 89 q 391 139 393 189 z"},"1":{"x_min":0,"x_max":380,"ha":380,"o":"m 359 0 l 55 0 l 55 51 l 180 51 l 180 470 l 55 470 l 55 521 l 237 521 l 237 51 l 359 51 z"},"5":{"x_min":0,"x_max":509,"ha":509,"o":"m 462 62 q 462 -29 411 -84 q 360 -140 260 -140 q 175 -140 127 -102 q 79 -63 64 -10 l 107 6 q 145 -91 252 -91 q 402 -91 402 58 q 402 160 336 188 q 270 215 183 215 q 142 215 102 212 l 82 232 l 82 521 l 434 521 l 440 395 l 393 390 l 385 471 l 135 471 l 135 264 q 148 265 162 265 q 175 265 188 265 q 258 265 320 250 q 383 235 422 192 q 462 148 462 62 z"}}}
